<svg width="71" height="16" viewBox="0 0 71 16" fill="none" xmlns="http://www.w3.org/2000/svg">
<path d="M10.88 1.04V3.3H7.16V15H4.36V3.3H0.64V1.04H10.88ZM17.743 15.14C16.7696 15.14 15.8896 14.9733 15.103 14.64C14.3296 14.3067 13.7163 13.8267 13.263 13.2C12.8096 12.5733 12.5763 11.8333 12.563 10.98H15.563C15.603 11.5533 15.803 12.0067 16.163 12.34C16.5363 12.6733 17.043 12.84 17.683 12.84C18.3363 12.84 18.8496 12.6867 19.223 12.38C19.5963 12.06 19.783 11.6467 19.783 11.14C19.783 10.7267 19.6563 10.3867 19.403 10.12C19.1496 9.85333 18.8296 9.64667 18.443 9.5C18.0696 9.34 17.5496 9.16667 16.883 8.98C15.9763 8.71333 15.2363 8.45333 14.663 8.2C14.103 7.93333 13.6163 7.54 13.203 7.02C12.803 6.48667 12.603 5.78 12.603 4.9C12.603 4.07333 12.8096 3.35333 13.223 2.74C13.6363 2.12667 14.2163 1.66 14.963 1.34C15.7096 1.00667 16.563 0.84 17.523 0.84C18.963 0.84 20.1296 1.19333 21.023 1.9C21.9296 2.59333 22.4296 3.56667 22.523 4.82H19.443C19.4163 4.34 19.2096 3.94667 18.823 3.64C18.4496 3.32 17.9496 3.16 17.323 3.16C16.7763 3.16 16.3363 3.3 16.003 3.58C15.683 3.86 15.523 4.26667 15.523 4.8C15.523 5.17333 15.643 5.48667 15.883 5.74C16.1363 5.98 16.443 6.18 16.803 6.34C17.1763 6.48667 17.6963 6.66 18.363 6.86C19.2696 7.12667 20.0096 7.39333 20.583 7.66C21.1563 7.92667 21.6496 8.32667 22.063 8.86C22.4763 9.39333 22.683 10.0933 22.683 10.96C22.683 11.7067 22.4896 12.4 22.103 13.04C21.7163 13.68 21.1496 14.1933 20.403 14.58C19.6563 14.9533 18.7696 15.14 17.743 15.14Z" fill="#0C21C1"/>
<path d="M33.6705 12.34H28.1105L27.1905 15H24.2505L29.2705 1.02H32.5305L37.5505 15H34.5905L33.6705 12.34ZM32.9105 10.1L30.8905 4.26L28.8705 10.1H32.9105ZM49.8869 3.92V15H47.0669V13.6C46.7069 14.08 46.2335 14.46 45.6469 14.74C45.0735 15.0067 44.4469 15.14 43.7669 15.14C42.9002 15.14 42.1335 14.96 41.4669 14.6C40.8002 14.2267 40.2735 13.6867 39.8869 12.98C39.5135 12.26 39.3269 11.4067 39.3269 10.42V3.92H42.1269V10.02C42.1269 10.9 42.3469 11.58 42.7869 12.06C43.2269 12.5267 43.8269 12.76 44.5869 12.76C45.3602 12.76 45.9669 12.5267 46.4069 12.06C46.8469 11.58 47.0669 10.9 47.0669 10.02V3.92H49.8869ZM55.9095 6.22V11.58C55.9095 11.9533 55.9962 12.2267 56.1695 12.4C56.3562 12.56 56.6629 12.64 57.0895 12.64H58.3895V15H56.6295C54.2695 15 53.0895 13.8533 53.0895 11.56V6.22H51.7695V3.92H53.0895V1.18H55.9095V3.92H58.3895V6.22H55.9095ZM66.6434 3.76C67.4834 3.76 68.2301 3.94667 68.8834 4.32C69.5368 4.68 70.0434 5.22 70.4034 5.94C70.7768 6.64667 70.9634 7.5 70.9634 8.5V15H68.1634V8.88C68.1634 8 67.9434 7.32667 67.5034 6.86C67.0634 6.38 66.4634 6.14 65.7034 6.14C64.9301 6.14 64.3168 6.38 63.8634 6.86C63.4234 7.32667 63.2034 8 63.2034 8.88V15H60.4034V0.2H63.2034V5.3C63.5634 4.82 64.0434 4.44667 64.6434 4.18C65.2434 3.9 65.9101 3.76 66.6434 3.76Z" fill="#000" />
</svg>
