<svg width="42" height="42" viewBox="0 0 42 42" fill="none" xmlns="http://www.w3.org/2000/svg">
<path d="M32.1562 0H9.84375C4.4072 0 0 4.4072 0 9.84375V32.1562C0 37.5928 4.4072 42 9.84375 42H32.1562C37.5928 42 42 37.5928 42 32.1562V9.84375C42 4.4072 37.5928 0 32.1562 0Z" fill="#242938"/>
<path d="M21.0002 4.92188C11.9403 4.92188 4.59375 12.267 4.59375 21.3283C4.59375 28.5771 9.29463 34.7268 15.8135 36.8962C16.6333 37.0481 16.9344 36.5403 16.9344 36.107C16.9344 35.7158 16.9191 34.4234 16.9121 33.0525C12.3478 34.0449 11.3848 31.1168 11.3848 31.1168C10.6383 29.2204 9.56304 28.7162 9.56304 28.7162C8.0745 27.6979 9.67526 27.7189 9.67526 27.7189C11.3228 27.8345 12.1903 29.4095 12.1903 29.4095C13.6536 31.9177 16.0284 31.1925 16.9646 30.7734C17.1119 29.7129 17.537 28.9892 18.0062 28.5795C14.3622 28.1646 10.5315 26.7578 10.5315 20.4714C10.5315 18.6802 11.1723 17.2166 12.2218 16.0676C12.0514 15.6544 11.4898 13.9857 12.3806 11.7259C12.3806 11.7259 13.7584 11.285 16.8937 13.4075C18.2024 13.0441 19.6058 12.8618 21.0002 12.8556C22.3944 12.8618 23.7991 13.0441 25.1101 13.4077C28.2416 11.2849 29.6174 11.726 29.6174 11.726C30.5104 13.9857 29.9486 15.6545 29.7782 16.0676C30.8301 17.2166 31.4667 18.6802 31.4667 20.4714C31.4667 26.7729 27.6286 28.1603 23.9753 28.5664C24.5638 29.0757 25.0881 30.074 25.0881 31.6047C25.0881 33.7998 25.0691 35.5666 25.0691 36.107C25.0691 36.5436 25.3644 37.0552 26.196 36.8941C32.7113 34.7222 37.4062 28.5746 37.4062 21.3283C37.4062 12.2671 30.0607 4.92188 21.0002 4.92188ZM10.7385 28.2931C10.7025 28.3746 10.5742 28.3991 10.4573 28.3431C10.3382 28.2896 10.2715 28.1784 10.31 28.0967C10.3453 28.0127 10.4739 27.9894 10.5925 28.0457C10.7118 28.0992 10.7797 28.2114 10.7385 28.2931ZM11.5456 29.0131C11.4673 29.0858 11.3142 29.052 11.2106 28.9373C11.1033 28.823 11.0831 28.6701 11.1625 28.5964C11.243 28.5239 11.3915 28.5579 11.499 28.6722C11.6063 28.788 11.6273 28.9398 11.5456 29.0131ZM12.0991 29.9345C11.9985 30.0044 11.8342 29.9389 11.7326 29.7929C11.632 29.6471 11.632 29.4722 11.7347 29.402C11.8366 29.3319 11.9985 29.3949 12.1016 29.5398C12.2018 29.6881 12.2018 29.8631 12.0991 29.9345ZM13.0354 31.0016C12.9455 31.1007 12.7541 31.0741 12.6138 30.9387C12.4704 30.8065 12.4304 30.6188 12.5206 30.5196C12.6116 30.4201 12.8043 30.4482 12.9455 30.5824C13.0879 30.7143 13.1314 30.9035 13.0354 31.0016ZM14.2455 31.3617C14.2058 31.4903 14.0214 31.5487 13.8356 31.4941C13.6502 31.4378 13.5286 31.2874 13.5662 31.1574C13.6047 31.0282 13.7899 30.9673 13.9771 31.0257C14.1625 31.0816 14.2841 31.2311 14.2455 31.3617ZM15.6227 31.5146C15.6273 31.6498 15.4698 31.762 15.2747 31.7645C15.0785 31.7689 14.9198 31.6593 14.9177 31.5263C14.9177 31.3896 15.0718 31.2785 15.2678 31.2752C15.4631 31.2715 15.6227 31.3801 15.6227 31.5146ZM16.9755 31.4628C16.999 31.5947 16.8635 31.7303 16.6697 31.7664C16.4793 31.8012 16.3029 31.7197 16.2788 31.5888C16.2551 31.4534 16.3931 31.3179 16.5833 31.2828C16.7774 31.2491 16.9509 31.3286 16.9755 31.4628Z" fill="white"/>
</svg>
