<svg  viewBox="0 0 42 42" fill="none" xmlns="http://www.w3.org/2000/svg">
<path d="M32.1562 0H9.84375C4.4072 0 0 4.4072 0 9.84375V32.1562C0 37.5928 4.4072 42 9.84375 42H32.1562C37.5928 42 42 37.5928 42 32.1562V9.84375C42 4.4072 37.5928 0 32.1562 0Z" />
<path d="M32.1562 0H9.84375C4.4072 0 0 4.4072 0 9.84375V32.1562C0 37.5928 4.4072 42 9.84375 42H32.1562C37.5928 42 42 37.5928 42 32.1562V9.84375C42 4.4072 37.5928 0 32.1562 0Z" fill="#0A66C2"/>
<path d="M30.3048 35.7139H35.1069C35.2809 35.7139 35.4478 35.6448 35.5709 35.5218C35.694 35.3988 35.7631 35.2319 35.7632 35.0579L35.7656 24.9119C35.7656 19.6089 34.6229 15.5328 28.4258 15.5328C26.07 15.4452 23.8485 16.6596 22.6496 18.6874C22.6438 18.6972 22.6349 18.7049 22.6242 18.7092C22.6136 18.7135 22.6019 18.7142 22.5908 18.7112C22.5798 18.7082 22.57 18.7017 22.563 18.6926C22.556 18.6835 22.5521 18.6724 22.552 18.661V16.6786C22.552 16.5045 22.4829 16.3376 22.3598 16.2146C22.2367 16.0915 22.0698 16.0223 21.8958 16.0223H17.3386C17.1646 16.0223 16.9976 16.0915 16.8746 16.2146C16.7515 16.3376 16.6824 16.5045 16.6824 16.6786V35.0569C16.6824 35.2309 16.7515 35.3978 16.8746 35.5209C16.9976 35.644 17.1646 35.7131 17.3386 35.7131H22.1404C22.3144 35.7131 22.4814 35.644 22.6044 35.5209C22.7275 35.3978 22.7966 35.2309 22.7966 35.0569V25.9722C22.7966 23.4035 23.2839 20.9158 26.4685 20.9158C29.6079 20.9158 29.6486 23.8552 29.6486 26.1386V35.0577C29.6486 35.2317 29.7177 35.3987 29.8408 35.5217C29.9638 35.6448 30.1308 35.7139 30.3048 35.7139ZM6.23438 9.78272C6.23438 11.7292 7.83677 13.3307 9.78338 13.3307C11.7295 13.3306 13.3309 11.728 13.3309 9.7819C13.3306 7.83579 11.729 6.23438 9.78272 6.23438C7.83595 6.23438 6.23438 7.83628 6.23438 9.78272ZM7.37609 35.7139H12.1843C12.3583 35.7139 12.5252 35.6448 12.6483 35.5217C12.7714 35.3987 12.8405 35.2317 12.8405 35.0577V16.6786C12.8405 16.5045 12.7714 16.3376 12.6483 16.2146C12.5252 16.0915 12.3583 16.0223 12.1843 16.0223H7.37609C7.20204 16.0223 7.03512 16.0915 6.91205 16.2146C6.78898 16.3376 6.71984 16.5045 6.71984 16.6786V35.0577C6.71984 35.2317 6.78898 35.3987 6.91205 35.5217C7.03512 35.6448 7.20204 35.7139 7.37609 35.7139Z" fill="white" />
</svg>
